<svg width="269" height="56" viewBox="0 0 269 56" fill="none" xmlns="http://www.w3.org/2000/svg">
<path d="M249.961 23.9721C250.679 21.8803 252.101 20.4295 253.782 20.0748C254.46 19.932 255.583 19.9984 256.465 20.2334C257.238 20.4392 258.569 21.3603 260.224 22.8346C263.379 25.6439 265.447 26.9288 267.287 27.2228C267.813 27.3071 268.339 27.4556 268.456 27.553C268.631 27.7003 268.667 28.9656 268.667 35.0774C268.667 37.0369 268.645 38.4961 268.614 39.5807C268.557 41.5702 267.47 43.198 265.775 44.185L247.358 54.9126C244.869 56.3621 241.815 56.3625 239.326 54.9136L221.525 44.5509C219.487 43.3643 218.164 41.2178 218 38.8299L218.001 36.1348C218.001 35.5452 218.154 34.9661 218.444 34.4559C219.452 32.6798 221.376 31.7929 223.482 32.1331C224.817 32.3485 225.542 32.7988 228.725 35.3878C231.234 37.4279 231.919 37.9007 233.581 38.7383C235.878 39.8955 236.719 40.1027 238.658 39.9894C241.322 39.8336 243.346 38.9463 245.157 37.1394C247.218 35.0827 248.034 33.0683 249.202 27.1515C249.45 25.8989 249.791 24.4681 249.961 23.9721Z" fill="#52CED8"/>
<path d="M221.944 11.2299C224.219 9.87414 227.314 8.04005 230.683 6.07064C234.013 4.12357 237.105 2.3484 239.402 1.03809C241.867 -0.367642 244.867 -0.340935 247.318 1.08925L264.614 11.1804C267.099 12.6299 268.663 15.3096 268.667 18.2329C268.668 19.9937 268.645 21.5947 268.555 21.6855C268.097 22.1499 266.97 21.5896 264.71 19.773C260.424 16.3273 258.87 15.5337 255.598 15.1203C252.626 14.745 249.871 15.7154 247.752 17.8829C245.519 20.1669 244.595 22.3877 244.041 26.8047C243.618 30.1751 243.192 31.3003 241.733 32.8994C240.338 34.4283 238.608 34.9811 236.736 34.4956C235.231 34.1052 233.867 33.2799 231.861 31.5449C229.612 29.6003 228.637 28.913 227.014 28.1276C224.569 26.9446 222.241 26.6396 219.709 27.1708C218.686 27.3853 218.434 27.3954 218.236 27.2292C218.026 27.0522 217.998 26.2529 218 20.3599C218 19.5599 218.006 18.7837 218.014 18.0589C218.048 15.2318 219.553 12.654 221.944 11.2299Z" fill="#52CED8"/>
<path d="M88.74 28.113V22.806H91.93V27.852C91.93 28.5287 92.162 29.099 92.626 29.563C93.09 30.0077 93.6603 30.23 94.337 30.23H106.227C106.614 30.23 106.942 30.1043 107.213 29.853C107.484 29.5823 107.619 29.2537 107.619 28.867V23.647H110.809V28.838C110.809 29.2247 110.944 29.5533 111.215 29.824C111.486 30.0947 111.814 30.23 112.201 30.23H113.071C113.342 30.23 113.477 30.3653 113.477 30.636V33.594C113.477 33.8647 113.342 34 113.071 34H112.752C112.056 34 111.408 33.855 110.809 33.565C110.21 33.2557 109.688 32.8303 109.243 32.289C108.76 32.8883 108.209 33.3233 107.59 33.594C106.991 33.8647 106.343 34 105.647 34H94.627C93.815 34 93.0513 33.8453 92.336 33.536C91.6207 33.2267 90.9923 32.811 90.451 32.289C89.929 31.7477 89.5133 31.1193 89.204 30.404C88.8947 29.6887 88.74 28.925 88.74 28.113ZM100.543 22.806V19.471H103.878V22.806H100.543ZM99.035 22.806H95.7V19.471H99.035V22.806ZM112.677 33.594V30.665C112.677 30.549 112.725 30.4523 112.822 30.375C112.899 30.2783 112.986 30.23 113.083 30.23H114.272C114.659 30.2107 114.987 30.0657 115.258 29.795C115.529 29.5243 115.664 29.1957 115.664 28.809V23.618H118.854V28.867C118.854 29.215 118.999 29.534 119.289 29.824C119.579 30.0947 119.888 30.23 120.217 30.23H121.145C121.532 30.23 121.87 30.114 122.16 29.882C122.45 29.6307 122.634 29.3117 122.711 28.925L123.726 23.676L126.858 24.256L125.988 28.664C125.891 29.07 125.978 29.4373 126.249 29.766C126.539 30.0753 126.887 30.23 127.293 30.23H128.105C128.492 30.23 128.82 30.1043 129.091 29.853C129.362 29.5823 129.497 29.2537 129.497 28.867V22.864H132.687V28.838C132.687 29.2247 132.822 29.5533 133.093 29.824C133.364 30.0947 133.692 30.23 134.079 30.23H135.239C135.355 30.23 135.452 30.2783 135.529 30.375C135.606 30.4523 135.645 30.5393 135.645 30.636V33.565C135.645 33.681 135.606 33.7873 135.529 33.884C135.471 33.9613 135.374 34 135.239 34H134.601C133.905 34 133.257 33.8647 132.658 33.594C132.059 33.3233 131.537 32.8883 131.092 32.289C130.628 32.8883 130.087 33.3233 129.468 33.594C128.849 33.8647 128.192 34 127.496 34C126.877 34 126.268 33.8743 125.669 33.623C125.07 33.3523 124.577 32.9077 124.19 32.289C123.745 32.9077 123.233 33.3523 122.653 33.623C122.073 33.8743 121.464 34 120.826 34C120.13 34 119.482 33.8647 118.883 33.594C118.284 33.3233 117.752 32.8883 117.288 32.289C116.824 32.8883 116.283 33.3233 115.664 33.594C115.065 33.8647 114.417 34 113.721 34H113.083C112.986 34 112.899 33.9613 112.822 33.884C112.725 33.7873 112.677 33.6907 112.677 33.594ZM134.823 33.594V30.636C134.823 30.52 134.862 30.4233 134.939 30.346C135.017 30.2493 135.113 30.2107 135.229 30.23H153.151C153.441 30.23 153.702 30.1237 153.934 29.911C154.166 29.6983 154.282 29.4277 154.282 29.099V27.04C154.282 26.692 154.157 26.402 153.905 26.17C153.654 25.9187 153.354 25.793 153.006 25.793H138.709L136.418 23.589L144.944 13.613L147.235 15.759L141.667 22.313H152.716C153.374 22.313 153.983 22.4387 154.543 22.69C155.123 22.9413 155.626 23.2797 156.051 23.705C156.496 24.1303 156.844 24.633 157.095 25.213C157.347 25.793 157.472 26.4117 157.472 27.069V28.838C157.472 29.2247 157.608 29.5533 157.878 29.824C158.149 30.0947 158.478 30.23 158.864 30.23H160.662C160.778 30.23 160.875 30.2783 160.952 30.375C161.03 30.4523 161.068 30.5393 161.068 30.636V33.565C161.068 33.681 161.03 33.7873 160.952 33.884C160.875 33.9613 160.778 34 160.662 34H159.415C158.739 34 158.11 33.884 157.53 33.652C156.95 33.4007 156.438 33.0623 155.993 32.637C155.549 33.0623 155.027 33.4007 154.427 33.652C153.847 33.884 153.238 34 152.6 34H135.229C135.113 34 135.017 33.9613 134.939 33.884C134.862 33.7873 134.823 33.6907 134.823 33.594ZM160.661 30.23H165.591C165.978 30.23 166.306 30.0947 166.577 29.824C166.848 29.534 166.983 29.1957 166.983 28.809V22.806H170.173V28.809C170.173 29.5243 170.038 30.201 169.767 30.839C169.496 31.4577 169.119 32.0087 168.636 32.492C168.172 32.956 167.621 33.3233 166.983 33.594C166.364 33.8647 165.697 34 164.982 34H160.661C160.545 34 160.448 33.9613 160.371 33.884C160.294 33.7873 160.255 33.6907 160.255 33.594V30.665C160.255 30.549 160.294 30.4523 160.371 30.375C160.448 30.2783 160.545 30.23 160.661 30.23ZM166.838 16.832H170.173V20.167H166.838V16.832ZM173.361 28.925V14.135H176.551V28.838C176.551 29.2247 176.686 29.5533 176.957 29.824C177.228 30.0947 177.556 30.23 177.943 30.23H179.306C179.422 30.23 179.519 30.2783 179.596 30.375C179.673 30.4523 179.712 30.549 179.712 30.665V33.594C179.712 33.8647 179.577 34 179.306 34H178.465C177.769 34 177.112 33.8743 176.493 33.623C175.874 33.3523 175.333 32.985 174.869 32.521C174.405 32.057 174.038 31.5157 173.767 30.897C173.496 30.2783 173.361 29.621 173.361 28.925ZM179.296 30.23H181.79C182.177 30.23 182.515 30.114 182.805 29.882C183.095 29.65 183.279 29.3407 183.356 28.954L184.429 23.734L187.561 24.285L186.691 28.664C186.594 29.07 186.681 29.4373 186.952 29.766C187.223 30.0753 187.571 30.23 187.996 30.23H190.171C190.287 30.23 190.384 30.2783 190.461 30.375C190.538 30.4523 190.577 30.549 190.577 30.665V33.594C190.577 33.6907 190.538 33.7873 190.461 33.884C190.384 33.9613 190.287 34 190.171 34H187.967C187.348 34 186.73 33.8357 186.111 33.507C185.492 33.159 185.077 32.753 184.864 32.289C184.729 32.521 184.535 32.7433 184.284 32.956C184.033 33.1493 183.752 33.333 183.443 33.507C183.153 33.6617 182.834 33.7873 182.486 33.884C182.157 33.9613 181.829 34 181.5 34H179.296C179.025 34 178.89 33.8647 178.89 33.594V30.665C178.89 30.549 178.929 30.4523 179.006 30.375C179.083 30.2783 179.18 30.23 179.296 30.23ZM185.212 21.066V17.731H188.547V21.066H185.212ZM180.369 17.731H183.704V21.066H180.369V17.731ZM189.765 33.565V30.607C189.765 30.3363 189.9 30.201 190.171 30.201H191.099C191.486 30.201 191.814 30.085 192.085 29.853C192.375 29.621 192.559 29.3117 192.636 28.925L193.216 25.938C193.313 25.416 193.496 24.9327 193.767 24.488C194.057 24.024 194.395 23.6373 194.782 23.328C195.169 22.9993 195.604 22.748 196.087 22.574C196.59 22.3807 197.112 22.284 197.653 22.284H199.277C199.934 22.284 200.553 22.4097 201.133 22.661C201.713 22.9123 202.216 23.2507 202.641 23.676C203.066 24.1013 203.405 24.604 203.656 25.184C203.907 25.764 204.033 26.3827 204.033 27.04V30.433C204.033 30.9163 203.936 31.3803 203.743 31.825C203.569 32.2503 203.318 32.6273 202.989 32.956C202.68 33.2653 202.312 33.5167 201.887 33.71C201.462 33.884 201.007 33.971 200.524 33.971H197.16C196.58 33.971 196.029 33.855 195.507 33.623C194.985 33.3717 194.511 32.9367 194.086 32.318C193.641 32.9367 193.148 33.3717 192.607 33.623C192.066 33.855 191.486 33.971 190.867 33.971H190.171C189.9 33.971 189.765 33.8357 189.765 33.565ZM196.754 30.201H200.843V27.011C200.843 26.7017 200.737 26.4407 200.524 26.228C200.311 26.0153 200.05 25.909 199.741 25.909H197.392C197.121 25.909 196.889 25.996 196.696 26.17C196.503 26.3247 196.377 26.5373 196.319 26.808L195.855 29.128C195.797 29.3987 195.855 29.65 196.029 29.882C196.222 30.0947 196.464 30.201 196.754 30.201Z" fill="#52CED8"/>
</svg>
