<svg width="120" height="134" viewBox="0 0 120 134" fill="none" xmlns="http://www.w3.org/2000/svg">
<path d="M72.3181 127.648C64.6956 132.049 55.3044 132.049 47.6819 127.648L12.3181 107.23C4.69564 102.828 1.84282e-05 94.6949 1.91977e-05 85.8928L2.27678e-05 45.056C2.35373e-05 36.2538 4.69565 28.1203 12.3181 23.7193L47.6819 3.30087C55.3044 -1.10019 64.6957 -1.10019 72.3181 3.30087L107.682 23.7193C115.304 28.1204 120 36.2539 120 45.056L120 85.8928C120 94.6949 115.304 102.828 107.682 107.23L72.3181 127.648Z" fill="url(#paint0_linear_3452_44529)"/>
<g filter="url(#filter0_d_3452_44529)">
<path d="M69.0755 111.459C63.4425 114.712 56.5024 114.712 50.8695 111.459L24.7359 96.3663C19.103 93.1131 15.633 87.1009 15.633 80.5945L15.633 50.4086C15.633 43.9022 19.103 37.89 24.7359 34.6368L50.8695 19.5438C56.5025 16.2906 63.4425 16.2906 69.0755 19.5438L95.209 34.6368C100.842 37.89 104.312 43.9022 104.312 50.4086L104.312 80.5945C104.312 87.1009 100.842 93.1131 95.209 96.3663L69.0755 111.459Z" fill="url(#paint1_linear_3452_44529)"/>
</g>
<path d="M65.1358 52.5312H53.9625C49.1092 52.5312 46.2158 55.4246 46.2158 60.2779V71.4379C46.2158 76.3046 49.1092 79.1979 53.9625 79.1979H65.1225C69.9758 79.1979 72.8692 76.3046 72.8692 71.4513V60.2779C72.8825 55.4246 69.9892 52.5312 65.1358 52.5312ZM58.2558 73.4113C58.6425 73.7979 58.6425 74.4379 58.2558 74.8246C58.0558 75.0246 57.8025 75.1179 57.5492 75.1179C57.2958 75.1179 57.0425 75.0246 56.8425 74.8246L54.5492 72.5312L52.2558 74.8246C52.0558 75.0112 51.8025 75.1179 51.5492 75.1179C51.2958 75.1179 51.0425 75.0246 50.8425 74.8246C50.4558 74.4379 50.4558 73.7979 50.8425 73.4113L53.1358 71.1179L50.8425 68.8246C50.4558 68.4379 50.4558 67.7979 50.8425 67.4113C51.2292 67.0246 51.8692 67.0246 52.2558 67.4113L54.5492 69.7046L56.8425 67.4113C57.2292 67.0246 57.8692 67.0246 58.2558 67.4113C58.6425 67.7979 58.6425 68.4379 58.2558 68.8246L55.9625 71.1179L58.2558 73.4113ZM57.5492 61.6113H51.5492C51.0025 61.6113 50.5492 61.1579 50.5492 60.6113C50.5492 60.0646 51.0025 59.6112 51.5492 59.6112H57.5492C58.0958 59.6112 58.5492 60.0646 58.5492 60.6113C58.5492 61.1579 58.0958 61.6113 57.5492 61.6113ZM67.5492 74.6112H61.5492C61.0025 74.6112 60.5492 74.1579 60.5492 73.6112C60.5492 73.0646 61.0025 72.6112 61.5492 72.6112H67.5492C68.0958 72.6112 68.5492 73.0646 68.5492 73.6112C68.5492 74.1579 68.0958 74.6112 67.5492 74.6112ZM67.5492 69.6113H61.5492C61.0025 69.6113 60.5492 69.1579 60.5492 68.6113C60.5492 68.0646 61.0025 67.6113 61.5492 67.6113H67.5492C68.0958 67.6113 68.5492 68.0646 68.5492 68.6113C68.5492 69.1579 68.0958 69.6113 67.5492 69.6113ZM67.5492 61.6113H65.5758V63.6113C65.5758 64.1579 65.1225 64.6113 64.5758 64.6113C64.0292 64.6113 63.5758 64.1579 63.5758 63.6113V61.6113H61.5492C61.0025 61.6113 60.5492 61.1579 60.5492 60.6113C60.5492 60.0646 61.0025 59.6112 61.5492 59.6112H63.5758V57.6112C63.5758 57.0646 64.0292 56.6112 64.5758 56.6112C65.1225 56.6112 65.5758 57.0646 65.5758 57.6112V59.6112H67.5492C68.0958 59.6112 68.5492 60.0646 68.5492 60.6113C68.5492 61.1579 68.0958 61.6113 67.5492 61.6113Z" fill="#44BF34"/>
<defs>
<filter id="filter0_d_3452_44529" x="2.69045" y="10.8126" width="114.564" height="122.68" filterUnits="userSpaceOnUse" color-interpolation-filters="sRGB">
<feFlood flood-opacity="0" result="BackgroundImageFix"/>
<feColorMatrix in="SourceAlpha" type="matrix" values="0 0 0 0 0 0 0 0 0 0 0 0 0 0 0 0 0 0 127 0" result="hardAlpha"/>
<feOffset dy="6.65094"/>
<feGaussianBlur stdDeviation="6.47118"/>
<feComposite in2="hardAlpha" operator="out"/>
<feColorMatrix type="matrix" values="0 0 0 0 0.0991667 0 0 0 0 0.103495 0 0 0 0 0.233333 0 0 0 0.7 0"/>
<feBlend mode="normal" in2="BackgroundImageFix" result="effect1_dropShadow_3452_44529"/>
<feBlend mode="normal" in="SourceGraphic" in2="effect1_dropShadow_3452_44529" result="shape"/>
</filter>
<linearGradient id="paint0_linear_3452_44529" x1="60" y1="130.949" x2="60" y2="7.10486e-05" gradientUnits="userSpaceOnUse">
<stop stop-color="#09C03C"/>
<stop offset="1" stop-color="#04541A"/>
</linearGradient>
<linearGradient id="paint1_linear_3452_44529" x1="77.2533" y1="105.232" x2="52.8417" y2="17.1081" gradientUnits="userSpaceOnUse">
<stop stop-color="white"/>
<stop offset="1" stop-color="#F0F1FA"/>
</linearGradient>
</defs>
</svg>
