<svg width="121" height="131" viewBox="0 0 121 131" fill="none" xmlns="http://www.w3.org/2000/svg">
<path d="M72.8181 127.648C65.1956 132.049 55.8044 132.049 48.1819 127.648L12.8181 107.23C5.19564 102.828 0.500018 94.6949 0.500019 85.8928L0.500023 45.056C0.500024 36.2538 5.19565 28.1203 12.8181 23.7193L48.1819 3.30086C55.8044 -1.10021 65.1957 -1.10021 72.8181 3.30086L108.182 23.7193C115.804 28.1203 120.5 36.2539 120.5 45.056L120.5 85.8928C120.5 94.6949 115.804 102.828 108.182 107.23L72.8181 127.648Z" fill="url(#paint0_linear_3452_54116)"/>
<g filter="url(#filter0_d_3452_54116)">
<path d="M69.0232 111.244C63.3903 114.498 56.4502 114.498 50.8173 111.244L24.6837 96.1514C19.0507 92.8982 15.5807 86.8861 15.5807 80.3797L15.5807 50.1937C15.5807 43.6873 19.0507 37.6751 24.6837 34.422L50.8173 19.329C56.4502 16.0758 63.3903 16.0758 69.0232 19.329L95.1568 34.422C100.79 37.6752 104.26 43.6873 104.26 50.1937L104.26 80.3797C104.26 86.8861 100.79 92.8982 95.1568 96.1514L69.0232 111.244Z" fill="url(#paint1_linear_3452_54116)"/>
</g>
<path d="M72.9429 59.1314C72.0895 56.2381 69.6762 53.8248 66.7829 52.9714C64.5829 52.3314 63.0629 52.3848 62.0095 53.1714C60.7429 54.1181 60.5962 55.8248 60.5962 57.0381V60.3581C60.5962 63.6381 62.0895 65.3048 65.0229 65.3048H68.8495C70.0495 65.3048 71.7695 65.1581 72.7162 63.8914C73.5295 62.8514 73.5962 61.3314 72.9429 59.1314Z" fill="#8239F8"/>
<path d="M69.2625 67.678C68.9158 67.278 68.4092 67.0514 67.8892 67.0514H63.1158C60.7692 67.0514 58.8625 65.1447 58.8625 62.798V58.0247C58.8625 57.5047 58.6358 56.998 58.2358 56.6514C57.8492 56.3047 57.3158 56.1447 56.8092 56.2114C53.6758 56.6114 50.7958 58.3314 48.9158 60.918C47.0225 63.518 46.3292 66.6914 46.9292 69.8647C47.7958 74.4514 51.4625 78.118 56.0625 78.9847C56.7958 79.1314 57.5292 79.198 58.2625 79.198C60.6758 79.198 63.0092 78.4514 64.9958 76.998C67.5825 75.118 69.3025 72.238 69.7025 69.1047C69.7692 68.5847 69.6092 68.0647 69.2625 67.678Z" fill="#8239F8"/>
<defs>
<filter id="filter0_d_3452_54116" x="6.88697" y="12.6631" width="106.066" height="114.182" filterUnits="userSpaceOnUse" color-interpolation-filters="sRGB">
<feFlood flood-opacity="0" result="BackgroundImageFix"/>
<feColorMatrix in="SourceAlpha" type="matrix" values="0 0 0 0 0 0 0 0 0 0 0 0 0 0 0 0 0 0 127 0" result="hardAlpha"/>
<feOffset dy="4.46754"/>
<feGaussianBlur stdDeviation="4.3468"/>
<feComposite in2="hardAlpha" operator="out"/>
<feColorMatrix type="matrix" values="0 0 0 0 0.0991667 0 0 0 0 0.103495 0 0 0 0 0.233333 0 0 0 0.7 0"/>
<feBlend mode="normal" in2="BackgroundImageFix" result="effect1_dropShadow_3452_54116"/>
<feBlend mode="normal" in="SourceGraphic" in2="effect1_dropShadow_3452_54116" result="shape"/>
</filter>
<linearGradient id="paint0_linear_3452_54116" x1="60.5" y1="130.949" x2="60.5" y2="5.57898e-05" gradientUnits="userSpaceOnUse">
<stop stop-color="#8239F8"/>
<stop offset="1" stop-color="#48149D"/>
</linearGradient>
<linearGradient id="paint1_linear_3452_54116" x1="77.201" y1="105.017" x2="52.7894" y2="16.8933" gradientUnits="userSpaceOnUse">
<stop stop-color="white"/>
<stop offset="1" stop-color="#F0F1FA"/>
</linearGradient>
</defs>
</svg>
