<svg width="120" height="134" viewBox="0 0 120 134" fill="none" xmlns="http://www.w3.org/2000/svg">
<path d="M72.3181 127.648C64.6956 132.049 55.3044 132.049 47.6819 127.648L12.3181 107.23C4.69564 102.828 1.84282e-05 94.6949 1.91977e-05 85.8928L2.27678e-05 45.056C2.35373e-05 36.2538 4.69565 28.1203 12.3181 23.7193L47.6819 3.30087C55.3044 -1.10019 64.6957 -1.10019 72.3181 3.30087L107.682 23.7193C115.304 28.1204 120 36.2539 120 45.056L120 85.8928C120 94.6949 115.304 102.828 107.682 107.23L72.3181 127.648Z" fill="url(#paint0_linear_3452_51010)"/>
<g filter="url(#filter0_d_3452_51010)">
<path d="M69.0755 111.459C63.4425 114.712 56.5024 114.712 50.8695 111.459L24.7359 96.3663C19.103 93.1131 15.633 87.1009 15.633 80.5945L15.633 50.4086C15.633 43.9022 19.103 37.89 24.7359 34.6368L50.8695 19.5438C56.5025 16.2906 63.4425 16.2906 69.0755 19.5438L95.209 34.6368C100.842 37.89 104.312 43.9022 104.312 50.4086L104.312 80.5945C104.312 87.1009 100.842 93.1131 95.209 96.3663L69.0755 111.459Z" fill="url(#paint1_linear_3452_51010)"/>
</g>
<path d="M65.1358 52.5312H53.9625C49.1092 52.5312 46.2158 55.4246 46.2158 60.2779V71.4513C46.2158 75.1979 47.9358 77.7712 50.9625 78.7446C51.8425 79.0513 52.8558 79.1979 53.9625 79.1979H65.1358C66.2425 79.1979 67.2558 79.0513 68.1358 78.7446C71.1625 77.7712 72.8825 75.1979 72.8825 71.4513V60.2779C72.8825 55.4246 69.9892 52.5312 65.1358 52.5312ZM70.8825 71.4513C70.8825 74.3046 69.7625 76.1046 67.5092 76.8512C66.2158 74.3046 63.1492 72.4912 59.5492 72.4912C55.9492 72.4912 52.8958 74.2913 51.5892 76.8512H51.5758C49.3492 76.1313 48.2158 74.3179 48.2158 71.4646V60.2779C48.2158 56.5179 50.2025 54.5312 53.9625 54.5312H65.1358C68.8958 54.5312 70.8825 56.5179 70.8825 60.2779V71.4513Z" fill="#F69D16"/>
<path d="M59.5492 60.5312C56.9092 60.5312 54.7759 62.6646 54.7759 65.3046C54.7759 67.9446 56.9092 70.0913 59.5492 70.0913C62.1892 70.0913 64.3225 67.9446 64.3225 65.3046C64.3225 62.6646 62.1892 60.5312 59.5492 60.5312Z" fill="#F69D16"/>
<defs>
<filter id="filter0_d_3452_51010" x="2.69045" y="10.8126" width="114.564" height="122.68" filterUnits="userSpaceOnUse" color-interpolation-filters="sRGB">
<feFlood flood-opacity="0" result="BackgroundImageFix"/>
<feColorMatrix in="SourceAlpha" type="matrix" values="0 0 0 0 0 0 0 0 0 0 0 0 0 0 0 0 0 0 127 0" result="hardAlpha"/>
<feOffset dy="6.65094"/>
<feGaussianBlur stdDeviation="6.47118"/>
<feComposite in2="hardAlpha" operator="out"/>
<feColorMatrix type="matrix" values="0 0 0 0 0.0991667 0 0 0 0 0.103495 0 0 0 0 0.233333 0 0 0 0.7 0"/>
<feBlend mode="normal" in2="BackgroundImageFix" result="effect1_dropShadow_3452_51010"/>
<feBlend mode="normal" in="SourceGraphic" in2="effect1_dropShadow_3452_51010" result="shape"/>
</filter>
<linearGradient id="paint0_linear_3452_51010" x1="60" y1="130.949" x2="60" y2="7.10486e-05" gradientUnits="userSpaceOnUse">
<stop stop-color="#FF891C"/>
<stop offset="1" stop-color="#C96000"/>
</linearGradient>
<linearGradient id="paint1_linear_3452_51010" x1="77.2533" y1="105.232" x2="52.8417" y2="17.1081" gradientUnits="userSpaceOnUse">
<stop stop-color="white"/>
<stop offset="1" stop-color="#F0F1FA"/>
</linearGradient>
</defs>
</svg>
