<svg width="120" height="134" viewBox="0 0 120 134" fill="none" xmlns="http://www.w3.org/2000/svg">
<path d="M72.3181 127.648C64.6956 132.049 55.3044 132.049 47.6819 127.648L12.3181 107.23C4.69564 102.828 1.84282e-05 94.6949 1.91977e-05 85.8928L2.27678e-05 45.056C2.35373e-05 36.2538 4.69565 28.1203 12.3181 23.7193L47.6819 3.30087C55.3044 -1.10019 64.6957 -1.10019 72.3181 3.30087L107.682 23.7193C115.304 28.1204 120 36.2539 120 45.056L120 85.8928C120 94.6949 115.304 102.828 107.682 107.23L72.3181 127.648Z" fill="url(#paint0_linear_3452_51051)"/>
<g filter="url(#filter0_d_3452_51051)">
<path d="M68.5232 111.244C62.8903 114.498 55.9502 114.498 50.3173 111.244L24.1837 96.1514C18.5507 92.8982 15.0807 86.8861 15.0807 80.3797L15.0807 50.1937C15.0807 43.6873 18.5507 37.6752 24.1837 34.422L50.3173 19.329C55.9502 16.0758 62.8903 16.0758 68.5232 19.329L94.6568 34.422C100.29 37.6752 103.76 43.6873 103.76 50.1937L103.76 80.3797C103.76 86.8861 100.29 92.8983 94.6568 96.1515L68.5232 111.244Z" fill="url(#paint1_linear_3452_51051)"/>
</g>
<path d="M65.2161 79.8644C66.5048 79.8644 67.5495 78.8198 67.5495 77.5311C67.5495 76.2424 66.5048 75.1978 65.2161 75.1978C63.9275 75.1978 62.8828 76.2424 62.8828 77.5311C62.8828 78.8198 63.9275 79.8644 65.2161 79.8644Z" fill="#E50808"/>
<path d="M54.5492 79.8644C55.8378 79.8644 56.8825 78.8198 56.8825 77.5311C56.8825 76.2424 55.8378 75.1978 54.5492 75.1978C53.2605 75.1978 52.2158 76.2424 52.2158 77.5311C52.2158 78.8198 53.2605 79.8644 54.5492 79.8644Z" fill="#E50808"/>
<path d="M50.0025 55.1179L49.7358 58.3846C49.6825 59.0113 50.1758 59.5312 50.8025 59.5312H71.2158C71.7758 59.5312 72.2425 59.1046 72.2825 58.5446C72.4558 56.1846 70.6558 54.2646 68.2958 54.2646H51.9092C51.7758 53.6779 51.5092 53.1179 51.0958 52.6512C50.4292 51.9446 49.4958 51.5312 48.5358 51.5312H46.2158C45.6692 51.5312 45.2158 51.9846 45.2158 52.5312C45.2158 53.0779 45.6692 53.5312 46.2158 53.5312H48.5358C48.9492 53.5312 49.3358 53.7046 49.6158 53.9979C49.8958 54.3046 50.0292 54.7046 50.0025 55.1179Z" fill="#E50808"/>
<path d="M70.8962 61.5312H50.4429C49.8829 61.5312 49.4295 61.9579 49.3762 62.5046L48.8962 68.3046C48.7095 70.5846 50.4962 72.5312 52.7762 72.5312H67.6029C69.6029 72.5312 71.3629 70.8912 71.5096 68.8913L71.9496 62.6646C72.0029 62.0513 71.5229 61.5312 70.8962 61.5312Z" fill="#E50808"/>
<defs>
<filter id="filter0_d_3452_51051" x="2.1382" y="10.5977" width="114.564" height="122.68" filterUnits="userSpaceOnUse" color-interpolation-filters="sRGB">
<feFlood flood-opacity="0" result="BackgroundImageFix"/>
<feColorMatrix in="SourceAlpha" type="matrix" values="0 0 0 0 0 0 0 0 0 0 0 0 0 0 0 0 0 0 127 0" result="hardAlpha"/>
<feOffset dy="6.65094"/>
<feGaussianBlur stdDeviation="6.47118"/>
<feComposite in2="hardAlpha" operator="out"/>
<feColorMatrix type="matrix" values="0 0 0 0 0.0991667 0 0 0 0 0.103495 0 0 0 0 0.233333 0 0 0 0.7 0"/>
<feBlend mode="normal" in2="BackgroundImageFix" result="effect1_dropShadow_3452_51051"/>
<feBlend mode="normal" in="SourceGraphic" in2="effect1_dropShadow_3452_51051" result="shape"/>
</filter>
<linearGradient id="paint0_linear_3452_51051" x1="60" y1="130.949" x2="60" y2="7.10486e-05" gradientUnits="userSpaceOnUse">
<stop stop-color="#E50808"/>
<stop offset="1" stop-color="#D60606"/>
</linearGradient>
<linearGradient id="paint1_linear_3452_51051" x1="76.701" y1="105.017" x2="52.2894" y2="16.8933" gradientUnits="userSpaceOnUse">
<stop stop-color="white"/>
<stop offset="1" stop-color="#F0F1FA"/>
</linearGradient>
</defs>
</svg>
